<?xml version="1.0" encoding="utf-8"?>
<!-- Generator: Adobe Illustrator 22.1.0, SVG Export Plug-In . SVG Version: 6.00 Build 0)  -->
<svg version="1.1" id="Layer_1" xmlns="http://www.w3.org/2000/svg" xmlns:xlink="http://www.w3.org/1999/xlink" x="0px" y="0px"
	 viewBox="0 0 512 512" style="enable-background:new 0 0 512 512;" xml:space="preserve">
<style type="text/css">
	.st0{clip-path:url(#SVGID_2_);fill:#595959;}
</style>
<g>
	<defs>
		<rect id="SVGID_1_" x="1.3" y="1.6" width="510.4" height="510.4"/>
	</defs>
	<clipPath id="SVGID_2_">
		<use xlink:href="#SVGID_1_"  style="overflow:visible;"/>
	</clipPath>
	<path class="st0" d="M305.5,414.1c-5.8-1.5-11.7-3-17.6-4.6c-8.4-2.2-17.2,0.7-22.5,7.5c-6.1,7.8-13.1,14.8-20.9,20.9
		c-6.8,5.3-9.7,14.1-7.5,22.4c1.6,5.9,3.1,11.9,4.6,17.6l-26,10.8c-3.1-5.2-6.2-10.5-9.2-15.7c-4.3-7.5-12.6-11.6-21.1-10.6
		c-9.8,1.2-19.8,1.2-29.6,0c-8.6-1.1-16.9,3.1-21.2,10.6c-3.1,5.3-6.2,10.6-9.2,15.7l-26-10.8c1.5-5.8,3-11.7,4.6-17.6
		c2.2-8.3-0.7-17.2-7.5-22.4c-7.8-6.1-14.8-13.1-20.9-20.9c-5.3-6.8-14.1-9.7-22.4-7.5c-5.9,1.6-11.8,3.1-17.6,4.6l-10.8-26
		c5.1-3.1,10.4-6.2,15.7-9.2c7.5-4.3,11.6-12.6,10.6-21.2c-1.2-9.8-1.2-19.8,0-29.6c1.1-8.5-3.1-16.9-10.6-21.2
		c-5.3-3-10.6-6.1-15.7-9.2l10.8-26c5.8,1.4,11.7,3,17.6,4.6c8.4,2.2,17.2-0.7,22.5-7.5c6.1-7.8,13.1-14.8,20.9-20.9
		c6.8-5.3,9.7-14.1,7.5-22.4c-1.6-5.9-3.1-11.8-4.6-17.6l26-10.8c3.1,5.1,6.2,10.4,9.2,15.7c4.3,7.5,12.6,11.7,21.1,10.6
		c9.8-1.2,19.7-1.2,29.6,0c8.5,1.1,16.9-3.1,21.2-10.6c3-5.3,6.1-10.6,9.2-15.7l26,10.8c-1.5,5.8-3,11.7-4.6,17.7
		c-2.3,8.3,0.7,17.2,7.5,22.4c7.8,6.1,14.8,13.1,20.9,20.9c5.3,6.8,14.1,9.7,22.4,7.5c5.9-1.6,11.8-3.1,17.6-4.6l10.8,26
		c-5.1,3.1-10.4,6.2-15.7,9.2c-7.5,4.3-11.6,12.6-10.6,21.2c1.2,9.8,1.2,19.7,0,29.6c-1.1,8.5,3.1,16.9,10.6,21.2
		c5.3,3,10.6,6.1,15.7,9.2L305.5,414.1z M329.1,369.2c-5.4-3.2-10.9-6.5-16.4-9.6c1.3-11,1.3-22.2,0-33.2c5.5-3.2,11-6.4,16.4-9.6
		c9-5.4,12.7-16.8,8.7-26.5h0l-11.7-28.3c-4-9.7-14.7-15.1-24.9-12.6c-6.1,1.5-12.2,3.1-18.4,4.8c-6.9-8.7-14.8-16.6-23.5-23.5
		c1.7-6.2,3.3-12.3,4.8-18.4c2.5-10.2-2.9-20.9-12.6-24.9l-28.3-11.7c-9.7-4-21.1-0.3-26.5,8.7c-3.2,5.4-6.5,10.9-9.6,16.4
		c-11-1.3-22.2-1.3-33.2,0c-3.2-5.5-6.4-11-9.6-16.4c-5.4-9-16.8-12.7-26.5-8.7l-28.3,11.7c-9.7,4-15.1,14.7-12.6,24.9
		c1.5,6.1,3.1,12.3,4.8,18.4c-8.7,6.9-16.6,14.8-23.5,23.5c-6.2-1.7-12.4-3.3-18.4-4.8c-10.2-2.5-20.9,2.9-24.9,12.6L2.9,290.1
		c-4,9.7-0.3,21.1,8.7,26.5c5.4,3.2,10.9,6.5,16.4,9.6c-1.3,11-1.3,22.2,0,33.2c-5.5,3.2-11,6.4-16.4,9.6c-9,5.4-12.7,16.8-8.7,26.5
		L14.6,424c4,9.7,14.7,15.1,24.9,12.6c6-1.5,12.2-3.1,18.4-4.8c6.9,8.7,14.8,16.6,23.5,23.5c-1.7,6.2-3.3,12.4-4.8,18.4
		c-2.5,10.2,2.9,20.9,12.6,24.9l28.3,11.7c2.6,1.1,5.4,1.6,8.1,1.6c7.3,0,14.5-3.8,18.4-10.3c3.2-5.3,6.4-10.8,9.6-16.4
		c11,1.3,22.2,1.3,33.2,0c3.2,5.5,6.4,11,9.6,16.4c5.4,9,16.8,12.7,26.5,8.7l28.3-11.7c9.7-4,15.1-14.7,12.6-24.9
		c-1.5-6-3.1-12.2-4.8-18.4c8.7-6.9,16.6-14.8,23.5-23.5c6.2,1.7,12.3,3.3,18.4,4.8c10.2,2.5,20.9-2.9,24.9-12.6l11.7-28.3
		C341.9,386,338.1,374.6,329.1,369.2"/>
	<path class="st0" d="M191.4,393.7c-13.6,5.6-28.5,5.6-42.1,0c-13.6-5.6-24.2-16.2-29.8-29.8c-11.6-28,1.7-60.3,29.8-71.9
		c6.9-2.8,14-4.2,21-4.2c21.6,0,42.1,12.8,50.9,34C232.8,349.9,219.4,382.1,191.4,393.7 M242.3,313.1L242.3,313.1
		c-16.4-39.7-62.1-58.6-101.7-42.1C100.9,287.4,82,333,98.4,372.7c8,19.2,22.9,34.2,42.1,42.1c9.6,4,19.7,6,29.8,6
		c10.1,0,20.2-2,29.8-6C239.8,398.4,258.7,352.8,242.3,313.1"/>
	<path class="st0" d="M490,139.3c-3.6,0.5-7.2,1-10.9,1.5c-7.3,0.9-13.2,6.1-15.1,13.1c-1.9,6.7-4.5,13.2-8,19.3
		c-3.6,6.3-3,14.2,1.4,20c2.2,2.9,4.5,5.9,6.6,8.8l-11.4,11.4c-2.9-2.2-5.9-4.4-8.8-6.6c-5.8-4.5-13.6-5-20-1.4
		c-6.1,3.4-12.6,6.1-19.3,8c-7,1.9-12.2,7.9-13.1,15.1c-0.5,3.7-1,7.3-1.5,10.9H374c-0.5-3.6-1-7.2-1.5-10.9
		c-0.9-7.2-6.1-13.2-13.1-15.1c-6.7-1.8-13.2-4.5-19.3-8c-6.3-3.6-14.2-3-20,1.4c-2.9,2.2-5.9,4.5-8.8,6.6L300,201.9
		c2.2-2.9,4.4-5.8,6.6-8.8c4.5-5.8,5-13.6,1.4-20c-3.5-6.1-6.1-12.6-8-19.3c-1.9-7-7.9-12.2-15.1-13.1c-3.7-0.5-7.3-1-10.9-1.5
		v-16.1c3.6-0.5,7.2-1,10.9-1.5c7.2-0.9,13.2-6.1,15.1-13.1c1.9-6.7,4.5-13.2,8-19.3c3.6-6.3,3-14.2-1.4-20
		c-2.3-2.9-4.5-5.9-6.6-8.8l11.4-11.4c2.9,2.2,5.9,4.4,8.8,6.6c5.8,4.5,13.6,5,20,1.4c6.1-3.4,12.6-6.1,19.3-8
		c7-1.9,12.2-7.9,13.1-15.1c0.5-3.7,1-7.3,1.5-10.9h16.1c0.5,3.6,1,7.2,1.5,10.9c0.9,7.3,6.1,13.2,13.1,15.1
		c6.7,1.9,13.2,4.5,19.3,8c6.3,3.6,14.2,3,20-1.4c2.9-2.2,5.9-4.5,8.8-6.6l11.4,11.4c-2.2,2.9-4.4,5.8-6.6,8.8
		c-4.5,5.8-5,13.6-1.4,20c3.4,6.1,6.1,12.6,8,19.3c1.9,7,7.9,12.2,15.1,13.1c3.7,0.5,7.3,1,10.9,1.5V139.3z M496.3,102.2
		c-3.9-0.6-8-1.2-12.1-1.7c-2.1-6.8-4.8-13.5-8.2-19.8c2.5-3.3,5-6.5,7.3-9.8c5.3-7.1,4.5-17.3-1.8-23.5l-15.8-15.8
		c-6.3-6.3-16.4-7.1-23.5-1.8c-3.2,2.4-6.5,4.8-9.8,7.3c-6.3-3.4-12.9-6.1-19.8-8.2c-0.5-4.1-1.1-8.1-1.7-12.1
		c-1.3-8.8-9-15.4-17.9-15.4h-22.3c-8.9,0-16.6,6.6-17.9,15.4c-0.6,3.9-1.2,8-1.7,12.1c-6.8,2.1-13.5,4.8-19.8,8.2
		c-3.3-2.5-6.5-5-9.7-7.3c-7.1-5.3-17.3-4.5-23.6,1.8l-15.8,15.8c-6.3,6.3-7.1,16.4-1.8,23.6c2.4,3.2,4.8,6.5,7.3,9.7
		c-3.4,6.3-6.1,12.9-8.2,19.8c-4.1,0.5-8.1,1.1-12.1,1.7c-8.8,1.3-15.4,9-15.4,17.9v22.3c0,8.9,6.6,16.6,15.4,17.9
		c3.9,0.6,8,1.2,12.1,1.7c2.1,6.8,4.8,13.5,8.2,19.8c-2.5,3.3-5,6.5-7.3,9.8c-5.3,7.1-4.5,17.3,1.8,23.5l15.8,15.8
		c6.3,6.3,16.4,7.1,23.6,1.8c3.2-2.4,6.5-4.8,9.7-7.3c6.3,3.4,12.9,6.1,19.8,8.2c0.5,4.1,1.1,8.1,1.7,12.1c1.3,8.8,9,15.4,17.9,15.4
		h22.3c8.9,0,16.6-6.6,17.9-15.4c0.6-3.9,1.2-8,1.7-12.1c6.8-2.1,13.5-4.8,19.8-8.2c3.3,2.5,6.5,4.9,9.7,7.3
		c7.1,5.3,17.3,4.5,23.6-1.8l15.8-15.8c6.3-6.3,7.1-16.4,1.8-23.6c-2.4-3.2-4.8-6.5-7.3-9.7c3.4-6.3,6.1-12.9,8.2-19.8
		c4.1-0.5,8.1-1.1,12.1-1.7c8.8-1.3,15.4-9,15.4-17.9v-22.3C511.7,111.2,505.1,103.5,496.3,102.2"/>
	<path class="st0" d="M382,156.9c-14.2,0-25.7-11.5-25.7-25.7c0-14.2,11.5-25.7,25.7-25.7c14.2,0,25.7,11.5,25.7,25.7
		C407.7,145.4,396.2,156.9,382,156.9 M382,85c-25.5,0-46.3,20.8-46.3,46.3c0,25.5,20.8,46.3,46.3,46.3c25.5,0,46.3-20.8,46.3-46.3
		C428.3,105.7,407.6,85,382,85"/>
</g>
</svg>
