<?xml version="1.0" encoding="utf-8"?>
<!-- Generator: Adobe Illustrator 22.1.0, SVG Export Plug-In . SVG Version: 6.00 Build 0)  -->
<svg version="1.1" id="Layer_1" xmlns="http://www.w3.org/2000/svg" xmlns:xlink="http://www.w3.org/1999/xlink" x="0px" y="0px"
	 viewBox="0 0 512 512" style="enable-background:new 0 0 512 512;" xml:space="preserve">
<style type="text/css">
	.st0{clip-path:url(#SVGID_2_);fill:#595959;}
</style>
<g>
	<defs>
		<rect id="SVGID_1_" x="70.5" y="1.6" width="371.6" height="510.4"/>
	</defs>
	<clipPath id="SVGID_2_">
		<use xlink:href="#SVGID_1_"  style="overflow:visible;"/>
	</clipPath>
	<path class="st0" d="M422.2,492.1H90.4V102.1h48.3v2.4c0,6.2,1.5,12,4.2,17.2h-22.6c-5.5,0-10,4.5-10,10v330.5c0,5.5,4.5,10,10,10
		h271.9c5.5,0,10-4.5,10-10V131.7c0-5.5-4.5-10-10-10h-22.6c2.7-5.1,4.2-11,4.2-17.2v-2.4h48.3V492.1z M382.3,452.2h-252V141.6h252
		V452.2z M158.7,92.2V78.8h55.2c3.2,0,6.1-1.5,8-4c1.9-2.5,2.4-5.8,1.5-8.8c-1-3.2-1.5-6.6-1.5-10c0-9.6,3.9-18.6,10.9-25.2
		c7-6.6,16.3-9.8,25.9-9.2c16.6,1.2,30.3,14.5,31.8,31.1c0.4,4.5,0,9-1.3,13.3c-0.9,3-0.4,6.3,1.5,8.8c1.9,2.5,4.9,4,8,4h55.2v13.3
		v12.4c0,9.5-7.7,17.2-17.1,17.2H175.9c-9.5,0-17.1-7.7-17.1-17.2V92.2z M432.1,82.2h-58.3V68.8c0-5.5-4.5-10-10-10h-53.3
		c0.1-2.7,0.1-5.3-0.1-8c-2.4-26.2-24-47.3-50.2-49.2c-15.2-1.1-29.8,4.1-40.9,14.5c-11,10.2-17.3,24.7-17.3,39.7c0,1,0,2,0.1,3
		h-53.3c-5.5,0-10,4.5-10,10v13.3H80.5c-5.5,0-10,4.5-10,10V502c0,5.5,4.5,10,10,10h351.7c5.5,0,10-4.5,10-10V92.2
		C442.1,86.7,437.6,82.2,432.1,82.2"/>
	<path class="st0" d="M344.7,378.4c-0.1-0.6-0.3-1.3-0.6-1.9c-0.3-0.6-0.6-1.2-0.9-1.7c-0.4-0.6-0.8-1.1-1.2-1.5
		c-0.5-0.5-1-0.9-1.5-1.2c-0.5-0.4-1.1-0.7-1.7-0.9c-0.6-0.3-1.2-0.4-1.9-0.6c-1.3-0.3-2.6-0.3-3.9,0c-0.6,0.1-1.3,0.3-1.9,0.6
		c-0.6,0.2-1.2,0.6-1.7,0.9c-0.5,0.4-1.1,0.8-1.5,1.2c-0.5,0.5-0.9,1-1.2,1.5c-0.4,0.5-0.7,1.1-0.9,1.7c-0.3,0.6-0.4,1.2-0.6,1.9
		c-0.1,0.6-0.2,1.3-0.2,1.9c0,0.6,0.1,1.3,0.2,2c0.1,0.6,0.3,1.3,0.6,1.9c0.3,0.6,0.6,1.2,0.9,1.7c0.4,0.5,0.8,1.1,1.2,1.5
		c0.5,0.5,1,0.9,1.5,1.2c0.5,0.4,1.1,0.7,1.7,0.9c0.6,0.3,1.2,0.4,1.9,0.6c0.7,0.1,1.3,0.2,2,0.2c0.7,0,1.3-0.1,1.9-0.2
		c0.6-0.1,1.3-0.3,1.9-0.6c0.6-0.2,1.2-0.6,1.7-0.9c0.6-0.4,1.1-0.8,1.5-1.2c0.5-0.5,0.9-1,1.2-1.5c0.4-0.5,0.7-1.1,0.9-1.7
		c0.2-0.6,0.4-1.2,0.6-1.9c0.1-0.6,0.2-1.3,0.2-2C344.8,379.7,344.8,379.1,344.7,378.4"/>
	<path class="st0" d="M300.3,370.4H177.7c-5.5,0-10,4.5-10,10s4.5,10,10,10h122.6c5.5,0,10-4.5,10-10S305.9,370.4,300.3,370.4"/>
	<path class="st0" d="M298.7,404.8h-84.7c-5.5,0-10,4.5-10,10s4.5,10,10,10h84.7c5.5,0,10-4.5,10-10S304.2,404.8,298.7,404.8"/>
	<path class="st0" d="M256.3,320.4l-43.6-66.8h13.1c5.5,0,10-4.5,10-10v-56.8h40.9v56.8c0,5.5,4.5,10,10,10h13.1L256.3,320.4z
		 M327,238.9c-1.7-3.2-5.1-5.2-8.8-5.2h-21.6v-56.8c0-5.5-4.5-10-10-10h-60.8c-5.5,0-10,4.5-10,10v56.8h-21.6c-3.7,0-7,2-8.8,5.2
		c-1.7,3.2-1.6,7.1,0.4,10.2l62,95c1.8,2.8,5,4.5,8.4,4.5s6.5-1.7,8.3-4.5l62-95C328.6,246,328.8,242.1,327,238.9"/>
</g>
</svg>
