<?xml version="1.0" encoding="utf-8"?>
<!-- Generator: Adobe Illustrator 22.1.0, SVG Export Plug-In . SVG Version: 6.00 Build 0)  -->
<svg version="1.1" id="Layer_1" xmlns="http://www.w3.org/2000/svg" xmlns:xlink="http://www.w3.org/1999/xlink" x="0px" y="0px"
	 viewBox="0 0 512 512" style="enable-background:new 0 0 512 512;" xml:space="preserve">
<style type="text/css">
	.st0{clip-path:url(#SVGID_2_);fill:#595959;}
</style>
<g>
	<defs>
		<rect id="SVGID_1_" x="6.7" y="1.6" width="500" height="510.4"/>
	</defs>
	<clipPath id="SVGID_2_">
		<use xlink:href="#SVGID_1_"  style="overflow:visible;"/>
	</clipPath>
	<path class="st0" d="M302.5,313.9H200.5v-8.4c0-2.7,1.7-5.6,3.7-6.4l28.9-12c5.4-2.3,9.4-7.1,10.5-12.8c0.1-0.7,0.2-1.4,0.2-2
		v-11.4c0-3.7-2-7.2-5.2-9l-10.6-6.1c-1.5-1.1-2.6-3.2-2.9-5.3v-6.9c0-5-3.5-9.1-8.2-10.2v-8.9c4.7-1,8.2-5.2,8.2-10.2v-14.6
		c0-8.2,6.8-14.9,15.2-14.9H263c8.3,0,15.1,6.7,15.1,14.9v14.6c0,5,3.5,9.1,8.1,10.2v8.9c-4.7,1-8.1,5.2-8.1,10.2v6.9
		c-0.3,2.2-1.3,4.3-2.8,5.4l-10.7,6.1c-3.2,1.9-5.2,5.3-5.2,9v11.4c0,0.7,0.1,1.4,0.2,2.1c1.2,5.7,5.1,10.5,10.4,12.7l28.9,12
		c2,0.8,3.7,3.8,3.7,6.4V313.9z M306.9,279.8l-26.7-11.1v-1.9l5.8-3.3c0.2-0.1,0.4-0.2,0.6-0.3c7.1-4.7,11.7-12.7,12.4-21.6
		c0-0.3,0-0.5,0-0.8v-0.2c4.9-3.3,8.1-9,8.1-15.3v-13c0-6.4-3.2-12-8.1-15.3v-7.3c0-19.7-16.1-35.8-35.9-35.8h-22.9
		c-19.8,0-36,16-36,35.8v7.3c-4.9,3.3-8.2,9-8.2,15.4v13c0,6.4,3.2,12,8.2,15.4v0.2c0,0.3,0,0.5,0,0.8c0.7,8.9,5.3,16.9,12.4,21.6
		c0.2,0.1,0.4,0.2,0.6,0.3l5.7,3.3v1.9l-26.8,11.1c-9.7,4-16.5,14.6-16.5,25.7v18.8c0,5.8,4.7,10.4,10.4,10.4H313
		c5.8,0,10.4-4.7,10.4-10.4v-18.8C323.4,294.4,316.6,283.8,306.9,279.8"/>
	<path class="st0" d="M345.8,162.5c-52-52-136.6-52-188.6,0c-20.7,20.7-33.8,46.9-37.8,75.8c-3.9,28,1.3,57,14.6,81.7
		c2.7,5.1,9,7,14.1,4.2c5.1-2.7,7-9,4.2-14.1c-23.4-43.4-15.3-98,19.5-132.9c43.9-43.9,115.2-43.9,159.1,0
		c43.9,43.9,43.9,115.2,0,159.1c-34.9,34.9-89.5,42.9-132.9,19.5c-5.1-2.7-11.4-0.8-14.1,4.2c-2.7,5.1-0.8,11.4,4.2,14.1
		c19.4,10.4,41.4,15.9,63.4,15.9c6.1,0,12.2-0.4,18.3-1.3c28.9-4,55.1-17.1,75.8-37.8C397.8,299.1,397.8,214.5,345.8,162.5"/>
	<path class="st0" d="M172,336.3c-4.1-4.1-10.7-4.1-14.7,0l-0.1,0.1c-4.1,4.1-4.1,10.7,0,14.7c2,2,4.7,3.1,7.4,3.1
		c2.7,0,5.3-1,7.4-3.1l0.1-0.1C176,347,176,340.4,172,336.3"/>
	<path class="st0" d="M485.9,68.4v42.5c0,11.5-9.3,20.8-20.8,20.8h-8.3V53.6c0-11.7-3.9-22.5-10.5-31.3h18.8
		c11.5,0,20.8,9.4,20.8,20.8V68.4z M485.9,241.1c0,11.5-9.3,20.8-20.8,20.8h-8.3V152.6h8.3c11.5,0,20.8,9.3,20.8,20.8V241.1z
		 M485.9,371.4c0,11.5-9.3,20.8-20.8,20.8h-8.3V282.8h8.3c11.5,0,20.8,9.4,20.8,20.8V371.4z M485.9,459.4
		c0,17.5-14.3,31.8-31.8,31.8h-7.8c6.6-8.7,10.5-19.5,10.5-31.3V413h8.3c7.6,0,14.7-2,20.8-5.6V459.4z M435.9,459.9
		c0,17.2-14,31.3-31.3,31.3h-40.5h-297v-38.5c0-5.8-4.7-10.4-10.4-10.4s-10.4,4.7-10.4,10.4v38.5H27.6V22.4h18.8v356.9
		c0,5.8,4.7,10.4,10.4,10.4c5.8,0,10.4-4.7,10.4-10.4V22.4h337.5c17.2,0,31.3,14,31.3,31.3V459.9z M465.1,1.6H17.1
		C11.4,1.6,6.7,6.2,6.7,12v489.6c0,5.8,4.7,10.4,10.4,10.4h437c29,0,52.6-23.6,52.6-52.6V43.2C506.7,20.2,488.1,1.6,465.1,1.6"/>
	<path class="st0" d="M56.7,405.7c-5.8,0-10.4,4.7-10.4,10.4c0,5.8,4.7,10.4,10.4,10.4s10.4-4.7,10.4-10.4v0
		C67.1,410.4,62.5,405.7,56.7,405.7"/>
</g>
</svg>
