<?xml version="1.0" encoding="utf-8"?>
<!-- Generator: Adobe Illustrator 22.1.0, SVG Export Plug-In . SVG Version: 6.00 Build 0)  -->
<svg version="1.1" id="Layer_1" xmlns="http://www.w3.org/2000/svg" xmlns:xlink="http://www.w3.org/1999/xlink" x="0px" y="0px"
	 viewBox="0 0 512 512" style="enable-background:new 0 0 512 512;" xml:space="preserve">
<style type="text/css">
	.st0{clip-path:url(#SVGID_2_);fill:#595959;}
</style>
<g>
	<defs>
		<rect id="SVGID_1_" x="2.3" width="507.6" height="513.6"/>
	</defs>
	<clipPath id="SVGID_2_">
		<use xlink:href="#SVGID_1_"  style="overflow:visible;"/>
	</clipPath>
	<path class="st0" d="M56,75.3l17,17c4.2,4.2,10.9,4.3,15.2,0.2l6.4-6.1c43.7-41.5,100.9-64.4,161-64.6
		c62.3-0.2,120.7,23.9,164.6,67.8c43.9,43.9,67.9,102.4,67.8,164.9c0,0,0,0.1,0,0.2c0.7,64.3-22.7,123.9-66,167.8l-0.9,0.9
		c-44.4,43.9-103.1,68.1-165.3,68.4C193.6,492,135.3,468,91.6,424.4c-38.7-38.7-62.2-89.4-66.8-143.8l37.7,0.7
		c4.3,40.5,22.1,80,49.7,110.5c1,1.1,2,2.2,3,3.2c0.9,1,1.9,2,2.9,3l0.6,0.6c4.6,4.6,9.4,9,14.4,13.1c0.2,0.2,0.4,0.3,0.6,0.5
		c1.1,0.9,2.1,1.7,3.2,2.5c12.7,9.8,26.4,18,40.9,24.3c0,0,0,0,0.1,0c1,0.5,2.1,0.9,3.2,1.3c0.4,0.2,0.8,0.3,1.2,0.5
		c0.6,0.2,1.1,0.4,1.7,0.7c23,9.1,47.9,13.6,73.5,13.3c18.6-0.3,36.8-3.1,54.2-8.3c31-9.3,59.5-26.2,83-49.8
		c36.2-35.8,55.9-84.9,56-138.6c0-1.7,0-3.5-0.1-5.2v0c0.1-44-15.6-87.5-43.5-122c-0.2-0.3-0.4-0.5-0.6-0.8
		c-1.9-2.4-3.9-4.7-5.9-6.9c-2.1-2.4-4.3-4.7-6.6-7l-0.6-0.6c-4.6-4.6-9.5-9-14.4-13.1c-2.5-2-5-4-7.6-5.9c-1.3-0.9-2.6-1.9-3.9-2.8
		c-72.7-51-172.4-46-241.5,15.5c-1.2,1.1-2.5,2.2-3.7,3.3l-6.8,6.4c-0.3,0.3-0.5,0.5-0.8,0.8c-1.7,1.9-2.6,4.4-2.7,7
		c0,3,1.1,5.8,3.2,7.9l19.5,19.5l-92.4,13.7L56,75.3z M42.4,189.8l117-17.3c3-0.4,5.6-2.1,7.3-4.5c0.3-0.5,0.6-0.9,0.9-1.4
		c0.2-0.5,0.4-0.9,0.6-1.4c1.3-3.9,0.3-8.2-2.6-11.1l-26.8-26.8c69.1-63.2,173.8-61.8,239.2,3.7l0.6,0.6
		c29,29.3,46.8,68.4,49.8,108.8c0.3,4.2,0.5,8.4,0.5,12.6c0,0,0,0.1,0,0.1v0.1c0,0,0,0.1,0,0.1c0.1,4.7,0,9.3-0.2,13.9
		c-2.1,44.3-19.4,84.4-49.4,114c-5.1,5.1-10.5,9.9-16.1,14.3c-2.2,1.8-4.5,3.5-6.8,5.1c-4.6,3.3-9.4,6.3-14.3,9.1
		c-2.4,1.4-4.9,2.7-7.4,4c-1.2,0.6-2.5,1.3-3.8,1.9c-22.8,11-47.9,17-73.8,17.3c-46.6,0.7-90.2-17-123-49.7l-0.6-0.6l0,0
		c-19.2-19.4-33.6-43.4-41.9-69.3c0,0,0,0,0-0.1c-0.1-0.2-0.1-0.4-0.2-0.6c-4.3-13.4-6.9-27.2-7.8-41.1l-0.1-1.6
		c-0.2-3.1-1.7-5.9-4-7.8c0,0-0.1-0.1-0.1-0.1c-0.2-0.2-0.4-0.3-0.6-0.4c-0.1,0-0.1-0.1-0.2-0.1c-1.7-1.1-3.7-1.8-5.8-1.8l-40.7-0.7
		C31.9,235.4,35.3,212.2,42.4,189.8 M37.6,50.6l-19,128.4c-0.4,2.8,0.3,5.6,1.9,7.8c-7,23.4-10.4,47.6-10.2,72.1
		c-1.9,0.5-3.6,1.5-4.9,2.9c-2.1,2.2-3.2,5.1-3.1,8.1l0.1,1.9c2.7,63.5,29,123.1,73.8,168c47.8,47.8,111.6,74,179.7,73.7
		c68-0.2,132.1-26.8,180.6-74.7l1-1c47.4-48,73.1-113.1,72.3-183.3c0.2-68.3-26.2-132.4-74.2-180.4c-48-48-111.9-74.3-180.1-74.1
		C190.5,0.2,128.5,24.8,81,69.4L56.1,44.5c-2.9-2.9-7.2-3.9-11.1-2.6C41.1,43.2,38.2,46.6,37.6,50.6"/>
	<path class="st0" d="M106.4,278.1c5.1,31.3,20.1,60.3,42.5,82.8c2.7,2.7,5.6,5.4,8.5,7.9c27.5,23.6,62.6,36.5,98.8,36.5
		c83.7,0,151.8-68.1,151.8-151.8c0-55.2-30-106.1-78.3-132.8c-5.3-2.9-11.9-1-14.8,4.3c-2.9,5.3-1,11.9,4.3,14.8
		c41.3,22.9,67,66.5,67,113.8c0,71.7-58.3,130-130,130c-64,0-118-45.8-128.3-108.9c-1-6-6.6-10-12.5-9
		C109.4,266.5,105.4,272.2,106.4,278.1"/>
	<path class="st0" d="M320.1,299.6c-0.5-0.5-1.1-1-1.7-1.4c-0.6-0.4-1.2-0.7-1.9-1s-1.3-0.5-2-0.6c-1.4-0.3-2.9-0.3-4.3,0
		c-0.7,0.1-1.4,0.4-2,0.6c-0.7,0.3-1.3,0.6-1.9,1c-0.6,0.4-1.1,0.9-1.7,1.4c-2,2-3.2,4.8-3.2,7.7s1.2,5.7,3.2,7.7
		c0.5,0.5,1.1,1,1.7,1.4c0.6,0.4,1.2,0.7,1.9,1c0.7,0.3,1.3,0.5,2,0.6c0.7,0.1,1.4,0.2,2.1,0.2c0.7,0,1.4-0.1,2.1-0.2
		c0.7-0.1,1.4-0.3,2-0.6c0.7-0.3,1.3-0.6,1.9-1c0.6-0.4,1.2-0.8,1.7-1.4c2-2,3.2-4.8,3.2-7.7S322.2,301.6,320.1,299.6"/>
	<path class="st0" d="M291.4,275.6L257.3,247v-70.8c0-6-4.9-10.9-10.9-10.9c-6,0-10.9,4.9-10.9,10.9v75.2c0,0.1,0,0.2,0,0.3
		c-0.1,3.2,1.2,6.5,3.9,8.7l38,31.9c2,1.7,4.5,2.5,7,2.5c3.1,0,6.2-1.3,8.4-3.9C296.6,286.4,296,279.5,291.4,275.6"/>
</g>
</svg>
