<?xml version="1.0" encoding="utf-8"?>
<!-- Generator: Adobe Illustrator 22.1.0, SVG Export Plug-In . SVG Version: 6.00 Build 0)  -->
<svg version="1.1" id="Layer_1" xmlns="http://www.w3.org/2000/svg" xmlns:xlink="http://www.w3.org/1999/xlink" x="0px" y="0px"
	 viewBox="0 0 512 512" style="enable-background:new 0 0 512 512;" xml:space="preserve">
<style type="text/css">
	.st0{clip-path:url(#SVGID_2_);fill:#595959;}
</style>
<g>
	<defs>
		<rect id="SVGID_1_" x="0.7" y="8.3" width="511.8" height="497"/>
	</defs>
	<clipPath id="SVGID_2_">
		<use xlink:href="#SVGID_1_"  style="overflow:visible;"/>
	</clipPath>
	<path class="st0" d="M328.3,152.8h59.9c5.6,0,10.6-4,11.5-9.6c1-7-4.4-13-11.1-13h-59.9c-5.6,0-10.6,4-11.5,9.6
		C316.2,146.8,321.6,152.8,328.3,152.8"/>
	<path class="st0" d="M304.4,197.9h11.4c5.6,0,10.6-4,11.5-9.6c1-7-4.4-13-11.1-13h-11.4c-5.6,0-10.6,4-11.5,9.6
		C292.3,192,297.6,197.9,304.4,197.9"/>
	<path class="st0" d="M351.1,197.9h14.3c5.6,0,10.7-4,11.5-9.6c1-7-4.4-13-11.1-13h-14.3c-5.6,0-10.6,4-11.5,9.6
		C339,192,344.4,197.9,351.1,197.9"/>
	<path class="st0" d="M389.6,185c-1,7,4.4,13,11.1,13h11.4c5.6,0,10.6-4,11.5-9.6c1-7-4.4-13-11.1-13h-11.4
		C395.4,175.4,390.4,179.4,389.6,185"/>
	<path class="st0" d="M304.4,243.1h11.4c5.6,0,10.6-4,11.5-9.6c1-7-4.4-13-11.1-13h-11.4c-5.6,0-10.6,4-11.5,9.6
		C292.3,237.1,297.6,243.1,304.4,243.1"/>
	<path class="st0" d="M351.1,243.1h14.3c5.6,0,10.7-4,11.5-9.6c1-7-4.4-13-11.1-13h-14.3c-5.6,0-10.6,4-11.5,9.6
		C339,237.1,344.4,243.1,351.1,243.1"/>
	<path class="st0" d="M400.7,243.1h11.4c5.6,0,10.6-4,11.5-9.6c1-7-4.4-13-11.1-13h-11.4c-5.6,0-10.6,4-11.5,9.6
		C388.6,237.1,394,243.1,400.7,243.1"/>
	<path class="st0" d="M304.4,288.3h11.8c6.2,0,11.2-5.1,11.2-11.3c0-6.2-5-11.3-11.2-11.3h-11.8c-6.2,0-11.2,5.1-11.2,11.3
		C293.2,283.2,298.2,288.3,304.4,288.3"/>
	<path class="st0" d="M351.1,288.3h14.7c6.2,0,11.2-5.1,11.2-11.3c0-6.2-5-11.3-11.2-11.3h-14.7c-6.2,0-11.2,5.1-11.2,11.3
		C339.9,283.2,344.9,288.3,351.1,288.3"/>
	<path class="st0" d="M412.5,265.7h-11.8c-6.2,0-11.2,5.1-11.2,11.3s5,11.3,11.2,11.3h11.8c6.2,0,11.2-5.1,11.2-11.3
		S418.7,265.7,412.5,265.7"/>
	<path class="st0" d="M388.6,310.9h-60.2c-6.2,0-11.2,5.1-11.2,11.3s5,11.3,11.2,11.3h60.2c6.2,0,11.2-5.1,11.2-11.3
		S394.8,310.9,388.6,310.9"/>
	<path class="st0" d="M490.1,426L490.1,426H314.7c0.4-7.2-0.5-14.8-2.7-22.6h144.4c6.2,0,11.2-5.1,11.2-11.3V78.5
		c0-6.2-5-11.3-11.2-11.3h-8.2V44.6h41.9V426z M309.2,482.7H23.1v-33.9h286.1V482.7z M65.9,362.7c20.4-29.5,48.7-60.5,74-87.9
		l14.7,20.6v53.7c0,0,0,0.1,0,0.1l-63.2,76.9H40.2C38.5,411.3,47.2,390,65.9,362.7 M84.9,176.1c5.4,2.1,12,3.4,20.1,3.4
		c19,0,29.1-7.5,37.2-13.5c7.2-5.3,12.3-9.1,23.9-9.1c11.6,0,16.8,3.8,24,9.1c8.1,6,18.3,13.5,37.2,13.5c8.2,0,14.7-1.4,20.1-3.4
		c-17.9,22.3-38.5,44.7-56.2,64c-2.8,3.1-25.1,33-25.1,33s-22.3-29.9-25.1-33C123.3,220.7,102.7,198.4,84.9,176.1 M56.1,135.5
		L56.1,135.5c-11.9-20-17.2-36.2-15.9-48.2h251.9c1.3,12-4,28.2-15.9,48.2v0c-11.5,2.4-18.9,7.8-25,12.3c-7.2,5.3-12.3,9.1-24,9.1
		c-11.6,0-16.8-3.8-24-9.1c-8.1-6-18.3-13.5-37.2-13.5c-19,0-29.1,7.5-37.2,13.5c-7.2,5.3-12.3,9.1-24,9.1c-11.6,0-16.8-3.8-24-9.1
		C74.9,143.3,67.5,137.9,56.1,135.5 M23.1,30.9h286.1v33.9H23.1V30.9z M207.7,255.5c13-14.2,27.6-29.9,41.5-46.3v95
		c-13.6-15.9-28-31.5-41.5-46.2c0,0,0,0,0,0C207.7,257.1,207.7,256.5,207.7,255.5 M211.9,426.2h-91.5l45.7-55.7L211.9,426.2z
		 M177,348.2v-51.6l15.5-21.9c25.2,27.4,53.6,58.3,73.9,87.9c18.8,27.2,27.4,48.6,25.7,63.5H241L177,348.2z M445.2,89.8v291.1H303.3
		c-7.7-15.9-18.9-32.5-31.7-49.1V181.8c7.7-10,14.9-20.1,21-29.9c0,0,0,0,0,0c15.2-24.3,22.5-44.8,22.1-62.1H445.2z M331.7,31.1
		h94.1v36.1h-94.1V31.1z M501.3,22h-53.1v-2.3c0-6.2-5-11.3-11.2-11.3L11.9,8.3c-6.2,0-11.2,5.1-11.2,11.3V76
		c0,6.2,5,11.3,11.2,11.3h5.8c-1.1,17.8,6.1,39.1,22,64.6c0,0,0,0,0,0c21.7,34.8,56.8,72.9,84.9,103.5c0,1,0,1.7,0,2.7c0,0,0,0,0,0
		C75.1,311.9,14.8,377.6,17.7,426.2h-5.8c-6.2,0-11.2,5.1-11.2,11.3V494c0,6.2,5,11.3,11.2,11.3h308.6c6.2,0,11.2-5.1,11.2-11.3
		v-45.4h169.6c6.2,0,11.2-5.1,11.2-11.3v-404C512.5,27.1,507.5,22,501.3,22"/>
</g>
</svg>
