<?xml version="1.0" encoding="utf-8"?>
<!-- Generator: Adobe Illustrator 22.1.0, SVG Export Plug-In . SVG Version: 6.00 Build 0)  -->
<svg version="1.1" id="Layer_1" xmlns="http://www.w3.org/2000/svg" xmlns:xlink="http://www.w3.org/1999/xlink" x="0px" y="0px"
	 viewBox="0 0 512 512" style="enable-background:new 0 0 512 512;" xml:space="preserve">
<style type="text/css">
	.st0{clip-path:url(#SVGID_2_);fill:#595959;}
</style>
<g>
	<defs>
		<rect id="SVGID_1_" x="1.3" y="1.6" width="510.4" height="510.4"/>
	</defs>
	<clipPath id="SVGID_2_">
		<use xlink:href="#SVGID_1_"  style="overflow:visible;"/>
	</clipPath>
	<path class="st0" d="M467.6,113.2c-3.1-4.6-9.3-5.7-13.9-2.6c-4.6,3.1-5.7,9.3-2.6,13.9c26.6,39.1,40.7,84.8,40.7,132.3
		c0,129.7-105.5,235.3-235.3,235.3c-129.7,0-235.3-105.5-235.3-235.3S126.8,21.5,256.5,21.5c48.5,0,95.1,14.6,134.7,42.3
		c4.5,3.2,10.7,2.1,13.9-2.5c3.2-4.5,2.1-10.7-2.5-13.9c-43-30.1-93.5-45.9-146.1-45.9C188.3,1.6,124.2,28.1,76,76.3
		C27.8,124.5,1.3,188.6,1.3,256.8S27.8,389,76,437.2c48.2,48.2,112.3,74.8,180.5,74.8c68.2,0,132.3-26.6,180.5-74.8
		c48.2-48.2,74.8-112.3,74.8-180.5C511.7,205.3,496.5,155.6,467.6,113.2"/>
	<path class="st0" d="M437.3,76.6l-0.3-0.3c-3.9-3.9-10.2-3.9-14.1,0c-3.9,3.9-3.9,10.2,0,14.1l0.3,0.3c1.9,1.9,4.5,2.9,7.1,2.9
		c2.6,0,5.1-1,7.1-2.9C441.2,86.9,441.2,80.5,437.3,76.6"/>
	<path class="st0" d="M214.6,355.4c0,7.7-6.3,14-14,14h-74.5c-7.7,0-14-6.3-14-14v-83.8c0-41.2,8.6-72.7,25.7-93.7
		c15.1-18.6,36.8-29.5,66-32.9v36.4c-26.3,5.4-53.7,25.7-53.7,86.4c0,5.5,4.5,10,10,10h40.5c7.7,0,14,6.3,14,14V355.4z M200.6,257.8
		h-30.3c2.8-48.3,26.4-56.3,44.4-57.9c5.1-0.5,9.1-4.8,9.1-9.9v-55.8c0-2.7-1.1-5.4-3.1-7.2c-2-1.9-4.7-2.9-7.4-2.7
		c-40,2.2-70.5,16.1-90.9,41.2c-20,24.6-30.1,60.4-30.1,106.2v83.8c0,18.7,15.2,33.9,33.9,33.9h74.5c18.7,0,33.9-15.2,33.9-33.9
		v-63.7C234.6,273,219.3,257.8,200.6,257.8"/>
	<path class="st0" d="M386.8,257.8h-30.3c2.8-48.3,26.4-56.3,44.4-57.9c5.1-0.5,9.1-4.8,9.1-9.9v-55.8c0-2.7-1.1-5.4-3.1-7.2
		c-2-1.9-4.7-2.9-7.4-2.7c-40,2.2-70.5,16.1-90.9,41.2c-20,24.6-30.1,60.4-30.1,106.2v3.5c0,5.5,4.5,10,10,10c5.5,0,10-4.5,10-10
		v-3.5c0-41.2,8.6-72.7,25.7-93.7c15.1-18.6,36.8-29.5,66-32.9v36.4c-26.3,5.4-53.7,25.7-53.7,86.4c0,5.5,4.5,10,10,10h40.5
		c7.7,0,14,6.3,14,14v63.7c0,7.7-6.3,14-14,14h-74.5c-7.7,0-14-6.3-14-14V350c0-5.5-4.5-10-10-10s-10,4.5-10,10v5.5
		c0,18.7,15.2,33.9,33.9,33.9h74.5c18.7,0,33.9-15.2,33.9-33.9v-63.7C420.8,273,405.5,257.8,386.8,257.8"/>
	<path class="st0" d="M288.4,300.2c-5.5,0-10,4.5-10,10v0.4c0,5.5,4.5,10,10,10c5.5,0,10-4.5,10-10v-0.4
		C298.4,304.7,293.9,300.2,288.4,300.2"/>
</g>
</svg>
